<?xml version="1.0" encoding="UTF-8"?>
<svg id="Layer_1" xmlns="http://www.w3.org/2000/svg" version="1.1" viewBox="0 0 547.2 339.7">
  <!-- Generator: Adobe Illustrator 30.3.0, SVG Export Plug-In . SVG Version: 2.1.3 Build 182)  -->
  <polygon points="113.7 40.3 126.4 1.1 139.5 40.2 180.7 40.1 147.6 64.7 160.4 103.8 126.8 79.9 93.5 104.2 105.9 64.9 72.5 40.7 113.7 40.3" style="fill: #b71234;"/>
  <path d="M547.2,326.3s-96.5-11.2-201.4-11.2c-104.9,0-214,12.3-214,12.3,0,0,58-41.3,211.8-41.3,143.9,0,203.6,40.2,203.6,40.2Z" style="fill: #008542;"/>
  <path d="M369.1,222.9c0,0-.1.2-.2.3-9.1,16.6-1.1,38.5-1.1,43.6s-2.4,2.4-2.4,2.4c-10.4-2.4-13.2.4-13.2.4-9.6,4-5.6,10.4-5.6,10.4h45.6s1.6-2.4.8-7.2c-.8-4.8.8-6.4,7.2-8,3.4-.9,15.1-18.8,25.3-29.8l-56.5-12.2h0Z" style="fill: #6d5635;"/>
  <path d="M487.1,242.8c-6.4-7.4-7.3-17.4-8-40.6,0-2.3-.4-4.9-1-7.4l-49.7,40.1c3.8,5.3,6.3,18.1,10,19.2,1.5.9,3.3,1.5,5.5,2,12.8,2.5,31.6,8.7,26.8,11.2-4.8,2.5-8.4-4.6-16.4,2.1-8,6.6-5.6,10.8-5.6,10.8h36s4.8-17.4,8-23.2.8-6.6-5.6-14.1Z" style="fill: #6d5635;"/>
  <g>
    <path d="M234,207.4l.7.4c0,0,.1-.1.2-.2,0,0-.3,0-.9-.2Z" style="fill: #999;"/>
    <path d="M227.7,238.9c-15.2,16.8-13.6,24.8-16.8,28.8-3.2,4-9.6,0-14.4,0s-8.8,4.8-12,8.8c-3.2,4,4.8,3.2,4.8,3.2h39.2c3.2-4,8.8-12,23.2-18.4,10.9-4.8,24.9-18.3,32.9-26.7l-49.8-26.8c-5.5,5.9-7,31-7,31Z" style="fill: #8c6239;"/>
  </g>
  <path d="M290.3,238.8s0,0,0,0c3.2,3.1,9.4,8.9,15.1,13.3,8,6.1,7.2,7.9,6.4,12.3-.8,4.4-6.4.9-12.8,2.6-6.4,1.8-7.2,9.7-7.2,9.7h30.4s12-14,15.2-21.9c2.6-6.4-4.8-20.3-7.7-25.3,0,0,0,0,0,0-.6-1.2-1.1-2.5-1.4-3.8l-42.1,10.1c1.7,1.4,3.1,2.5,4.1,3.1Z" style="fill: #584528;"/>
  <path d="M478.1,194.8c-1.4-6.3-4-13-6.5-18.1-2.5-5.1-4.9-8.7-5.7-8.7,0,0,0-.5.1-1.3l-38.9,66.8c.4.4.8.9,1.2,1.4l49.7-40.1Z" style="fill: #584528;"/>
  <path d="M466.3,159.8c-.1-1.9-2.7-8-7.5-10.4-8-4.2,1.4,5.1-10.6-8.5-12-13.6-37.6-22.4-68.8-25.6-12.1-1.2-23.9-.9-34.4,0l20.6,104.8c1.1.4,1.9,1,2.5,1.6l98.2-58.2c0-1.3,0-2.6,0-3.5Z" style="fill: #82603e;"/>
  <path d="M368.1,221.5c.4.4.7.8,1,1.2h0c0,0,56.5,12.3,56.5,12.3.5-.6,1-1.1,1.6-1.6,0,0,0,0,.1.1l38.9-66.8c0-.9.2-2.2.2-3.4l-98.2,58.2Z" style="fill: #8c6b45;"/>
  <path d="M192.5,149c0-1.1-.5-2.2-2-3.4-6.4-5.6-8.8-2.4-11.2-1.6-2.4.8-3.2,8-3.2,8,0,0-4-4-8.8-2.4s-6.4,7.2-5.6,10.4c.8,3.2-13.6,14.4-14.4,20.8-.8,6.4.8,7.2-.8,10.4s-18.4,20-18.4,20c0,0,14.4,16,22.4,16s31.2-4,31.2-4c0,0,15.2,5.6,21.6.8,2.6-2,6.8-6,9.9-11.1,2.8-1.6,5.5-3.3,7.7-4.9,5.5-1.8,10.8-1.1,13-.6l-39.2-61c-1.4,1.5-2.3,2.6-2.3,2.6Z" style="fill: #82603e;"/>
  <g>
    <path d="M247.7,167.8l-13.7,39.6c.6.1.9.2.9.2,0,0-.1.1-.2.2l49.8,26.8s0,0,.1-.1l10.1-45.6-47.1-21.1Z" style="fill: #82603e;"/>
    <path d="M294.8,188.9l15.4-69.7c-.1,0-.3,0-.4,0-9.6,0-21.6-10.4-37.6-12.8-1.1-.2-2.1-.2-3.2-.2l-21.3,61.7,47.1,21.1Z" style="fill: #bd8a5e;"/>
    <path d="M294.8,188.9l-10.1,45.6c.5.4,1,.8,1.5,1.2l42.1-10.1c-.1-.5-.2-.9-.3-1.4,13.4,2.9,25.7,1.7,31.9-1.4,1.6-.8,3-1.8,4.3-2.8l-69.3-31.1Z" style="fill: #8c6239;"/>
    <path d="M364.1,220c.2-.1.3-.2.5-.4.4,0,.7.2,1,.3l-20.6-104.8c-16,1.3-28.9,3.9-34.9,4l-15.4,69.7,69.3,31.1Z" style="fill: #9c774e;"/>
    <path d="M269,106.1c-14.7,0-27.6,14.3-43.2,20.3-4.1,1.6-7.9,3.5-11.3,5.8,0,0,0,0,0,0-4.3-1.3-13,7.2-18.1,12.6l51.4,23.1,21.3-61.7Z" style="fill: #8c6b45;"/>
    <path d="M196.3,144.7c-.6.6-1.1,1.2-1.6,1.7l39.2,61s0,0,.1,0l13.7-39.6-51.4-23.1Z" style="fill: #6d5635;"/>
  </g>
  <path d="M112,321.8c-.9,0-1.8-.4-2.3-1.2l-.6-.8c-.2-.3-.4-.7-.5-1v-.6c-.1,0-.2-.1-.2-.1l-1.4-1.1c-.3-.3-.6-.6-.7-.9l-1.2-2.4c-.2-.4-.3-.9-.3-1.3v-2.5c0-.2,0-.4.1-.5l.5-2.4.2-2.4v-.9c0,0-.3-1.1-.3-1.1l-.3-.9-.5-.8c0,0-.1-.2-.2-.3l-.6-1.2c-.1-.2-.2-.5-.3-.8l-.4-2h-.6c-.6-.2-1.1-.5-1.5-.8l-.6-.5-3.5-3.1c-.7-.6-1.1-1.5-.9-2.5l.2-1.6c0-.3.1-.6.2-.9l.8-1.7-.9-1.9c-.4-.8-.4-1.6,0-2.4l2.2-5c.4-1,1.4-1.6,2.4-1.7l5.8-.3c.2,0,.5,0,.7,0l1.1.2c.7.1,1.3.5,1.7,1.1l.5.7c0,.1.2.2.2.3l2.4,4.3c.2.4.3.8.3,1.2h0s.1.3.1.3c.1.3.2.6.3.9h0c.7.7,1,1.7.8,2.6v.4c0,0,0,0,0,0l.2.4c0,0,.1,0,.2,0l2.2,1.1c0,0,.2,0,.2.1.3,0,.7.2,1,.4l.8.5c.5.3.8.7,1.1,1.2l.3.6s0,0,0,.1l1.6.5c.2,0,.4.1.6.3l.6.4-.6-1.4s0,0,0-.1l-1.9-5.4-1-2.2c-.9-.6-1.4-1.8-1.2-2.9,0,0,0,0,0,0h0c0,0-1-1-1-1l-1.4-.8c-.1,0-.2-.1-.3-.2l-3-2.3c-.2-.1-.3-.3-.5-.5l-1.6-1.9c-.6-.8-.8-1.8-.5-2.7v-.4c-.3-.2-.7-.5-1-.9l-1.1-1.4c-.7-.9-.8-2.1-.3-3.1l.7-1.3.7-3.7c.2-.9.7-1.6,1.5-2h.1c0,0,1.3-1.4,1.3-1.4,0-.2-.2-.3-.2-.5v-.2c0,0-.4-.4-.4-.4l-2.7-1.5s0,0,0,0l-1,.9c-.4.3-.8.6-1.3.7l-1.4.3c-.4,0-.8.1-1.2,0l-1-.2.2.8,1.7,1.2c.5.4.9.9,1.1,1.6v.4c.1,0,.3.6.3.6.1.3.2.7.2,1v.8c0,.4,0,.7-.2,1.1l-.2.5h0c.3,1.1-.1,2.2-.9,2.9h-.1c0,.1-.2.8-.2.8,0,0,0,0,0,.1.2.4.4.8.4,1.3v1.2c.1.8-.2,1.6-.8,2.2l-.7.7c-.5.5-1.1.7-1.7.8h-1.2c-.4.1-.7.1-1.1,0l-1.3-.4c-.3,0-.6-.2-.9-.4l-.9-.7c0,0-.2-.1-.2-.2l-2.1-1.9c-.9.7-2.1.8-3,.3l-.7-.3c-.4-.2-.7-.5-1-.9l-1.3-1.8-.9-.5c-.2-.1-.4-.2-.6-.4l-.6-.6c-.4-.4-.7-.8-.9-1.4l-.4-1.4-.4-.3s0,0-.1,0l-.3-.3c-.6-.5-.9-1.2-1-1.9l-.3-4.3-.2-.9-.5-.8-2-2.3c0-.1-.2-.2-.2-.3l-2.4-3.9-1.4-1.7c-.2-.2-.3-.5-.4-.8l-.2-.5c0-.1,0-.3-.1-.4l-.2-.9-.3-.3c-.1,0-.3.1-.4.2-1.3.4-2.6,0-3.3-1.2l-.6-1c-.3-.5-.4-1-.4-1.5v-2.1s-.4-.5-.4-.5c-.3-.3-.5-.7-.7-1.1l-1.1-3.4-.8-.9-6-3.1c-.2-.1-.4-.2-.6-.4l-1.8-1.6c-.1-.1-.3-.3-.4-.4l-8.8-11.8-1.3-1.3-1.8-1.3c-.1,0-.2-.2-.3-.2l-1.1-1c-.3-.2-.5-.5-.6-.8l-.5-1-2.5-2c-.1,0-.2-.2-.3-.3l-3.7-4.1c-.1-.1-.2-.2-.3-.4l-1.5-2.3c-.2-.4-.4-.8-.5-1.3l-.2-2c0-.6,0-1.2.4-1.8l.7-1.2c.1-.2.3-.4.5-.6l.5-.5v-.6c0,0,0,0,0,0l-.4-1.1c0-.2-.1-.4-.1-.5v-.7c-.1-.2-.2-.4-.2-.6v-2.1c0,0,0,0,0,0l-1.5-3.5h-.2c-.5-.5-.8-.9-1-1.5l-.5-1.4c0-.1,0-.3-.1-.4l-.6-2.9-.6-1.8h-.1c-.6-.7-.8-1.4-.8-2.2v-.6s-.7-1.8-.7-1.8c-.3-.6-.3-1.3,0-2l.7-2.1.5-4.4c0,0,0-.2,0-.3l.6-2.8v-6.5c0,0,.2-4.3.2-4.3l-.3-.8-1.1-1.4c-.2-.2-.4-.5-.5-.8l-.9-2.4c0-.2-.2-.5-.2-.8l-.2-2.8v-.4c-.1,0-7.2-10.5-7.2-10.5l-1-1-1.3-.5c-.5-.2-.9-.5-1.2-.9l-.6-.8c-.1-.2-.3-.4-.3-.6l-2.1-4.6-.4-.4-2.6-1.6c-.2,0-.3-.2-.4-.3l-6.9-6.2-1.5-1c-.7-.5-1.1-1.2-1.2-2.1l-.2-1.6c0-.1,0-.3,0-.4l.2-4.3-1.3-3.4-.7-1.3c-.3-.6-.4-1.3-.3-2l2.4-10.1c0-.3.2-.5.3-.7l2.3-4.1c0,0,0-.1,0-.2l4.9-7.4c.1-.2.2-.3.4-.5l.3-.3,1.7-2.9.5-2.7,1.8-9.4v-.8s-.3-.8-.3-.8l-1.6-3.6c-.2-.5-.3-1-.2-1.6l.7-4.3c0,0,0-.2,0-.2l.6-2.6c0-.1,0-.3.1-.4l.9-2.3,1.1-4.4.4-3.5c0-.1,0-.2,0-.4l1-3.8v-1.5c.1,0-.7-3.9-.7-3.9,0,0,0-.1,0-.2l-.3-2.2c0-.3,0-.6,0-.9l-.2-.2c-.1-.2-.3-.4-.4-.6l-.3-.7c-.2-.3-.2-.7-.3-1v-.7c0,0,0-.2,0-.3v-1.1s-.1-.3-.1-.3c-.1-.2-.2-.3-.3-.5l-1.3-3.2c-.2-.4-.2-.8-.2-1.3v-.9c0,0,0-.8,0-.8l-1.5-1.6c-1-1.2-1-3,.2-4s3-1,4,.2l2.1,2.4c.4.5.7,1,.7,1.7l.2,2c0,.1,0,.3,0,.4v.4s.9,2.4.9,2.4l.3.4c0,0,0,.2.1.2l.2.4c.2.4.3.9.3,1.4v1.7c0,0,0,0,0,0l.3.2c.7.4,1.2,1,1.4,1.7.2.7.1,1.5-.3,2.2l-.2.4.2,1.2.9,4.2c0,.3,0,.5,0,.8l-.2,2.1c0,.2,0,.3,0,.5l-1,3.9-.4,3.5c0,.1,0,.2,0,.3l-1.2,4.8c0,.1,0,.2-.1.4l-.9,2.2-.5,2.3-.5,3.4,1.3,3c0,0,0,.1,0,.2l.5,1.5c.1.4.2.7.2,1.1v1.6c0,.1,0,.3-.1.4l-2.5,12.8c0,.3-.2.6-.3.8l-2.1,3.7c-.1.2-.3.4-.5.6l-.4.4-4.6,7.1-2.1,3.7-2.1,8.7.3.5c0,.1.1.2.2.4l1.6,4.2c.1.4.2.8.2,1.2l-.2,4.7h0c0,.1.5.5.5.5,0,0,.2.1.3.2l6.8,6.2,2.7,1.6c.2.1.3.2.5.4l1,.9c.3.3.5.5.6.9l2.2,4.7,1,.4c.3.1.7.3.9.6l1.7,1.6c.1.1.3.3.4.5l7.6,11.1c.2.3.3.6.4.9l.3,1.1c0,.1,0,.3,0,.4l.2,2.6.6,1.6s0,0,0,.1l1.1,1.5c.2.2.3.5.4.7l.6,1.7c.1.3.2.7.2,1.1v4.8c-.1,0-.2,6.7-.2,6.7,0,.2,0,.4,0,.5l-.6,2.9-.5,4.6c0,.2,0,.4-.1.6l-.5,1.4.6,1.4c.2.4.2.8.2,1.2h0c0,.2.1.3.2.5l.4.9c0,0,0,.2.1.3l.6,1.8c0,0,0,.2,0,.3l.6,2.9v.4c.1,0,.3,0,.3,0,.4.3.8.7,1,1.2l2,4.7c.1.3.2.5.2.8v.7c0,.1,0,.3,0,.4v2c0,0,0,.1,0,.1l.4,1.1c0,.2.1.4.2.6v.7c.2.3.2.5.1.8l-.2,1.7c0,.4-.2.8-.4,1.2l-.6.9c-.1.2-.3.4-.4.5l-.4.4v.4s1,1.5,1,1.5l3.4,3.7,2.6,2.2c.2.2.4.4.5.6l.5.7c0,.1.2.3.2.4l.2.5.6.5,1.9,1.3c.1,0,.3.2.4.3l1.6,1.6c0,0,.2.2.3.3l8.7,11.8,1.3,1.2,6.1,3.2c.3.1.5.3.7.6l1.6,1.7c.3.3.5.6.6,1l1.1,3.3.8.9c.5.5.8,1.3.8,2v.6s2.4,1.6,2.4,1.6c.2.1.4.3.5.5l1,1.1c.2.2.4.5.5.8l.2.5c0,.2.1.3.2.5l.2,1,1.2,1.4c0,0,.1.2.2.3l2.4,3.9,2,2.4c0,.1.2.2.3.4l.8,1.4c.2.3.3.5.3.8l.4,1.6c0,.1,0,.3,0,.4l.2,3.3c.2.2.4.4.6.6l.6.8c.2.3.3.6.4.9l.2.9.7.4c.2.1.4.3.6.4h0c1-.5,2.3-.4,3.1.4l2.9,2.5s0,0,.1,0l.6.6c.1-.4.4-.8.7-1.1l.3-.3.3-.9c0-.3.2-.6.4-.8,0-.3,0-.7.2-1l.3-.6-1.7-1.2c-.5-.4-.9-.9-1.1-1.6l-.9-3.6c-.2-.8,0-1.8.5-2.4l1.6-2c.6-.8,1.7-1.3,2.7-1.1l2.6.5h0s.1-.1.1-.1l.7-1.4c.4-.7,1-1.2,1.7-1.4.7-.2,1.5-.1,2.2.3l5.6,3.2c.3.2.6.4.8.7l.9,1.2c.2.2.3.5.4.7h0c.7.6,1,1.5,1,2.3v2.1c-.1.7-.4,1.3-.9,1.8l-2.5,2.5s0,0,0,0l-.6,2.9c0,.1,0,.3-.1.4l1,.3c1.5.5,2.2,2.1,1.7,3.6l-.5,1.5.4.5,2.6,2,1.6.9c.2.1.4.2.5.4l1.7,1.6c.3.3.6.7.7,1.1l.9,2.2c0,0,0,.2,0,.2,0,0,0,.1,0,.2l1.3,3.1c0,0,0,.1,0,.2l1.9,5.4.8,1.9.4.9c0,.1,0,.2.1.3l.6,1.7c.2.5.2.9.1,1.4.3.4.5.9.6,1.4.1.9-.2,1.9-1,2.5l-.8.7c-.3.3-.7.5-1.2.6l-1.1.3c-.3,0-.6.1-.9,0h-1.2c-.3-.1-.6-.2-.9-.3l-1-.4c-.5-.2-.9-.5-1.2-.9l-.6-.8c-.1-.1-.2-.3-.3-.5l-.2-.4-.3-.2-2.5-.8c-.7-.2-1.2-.7-1.6-1.3l-.3-.5c-.1-.2-.2-.4-.3-.6-.3-.1-.6-.3-.9-.5h-.1c0-.1-1.6-.9-1.6-.9-.8,0-1.6-.5-2.1-1.2l-.6-.8c-1.2-.6-1.8-1.8-1.6-3.2v-.7c0-.2-.1-.5-.2-.7v-.5c-.2-.2-.2-.4-.2-.5h0s-.2-.3-.2-.3c-.2-.4-.3-.7-.3-1.1l-1.7-3.1-3.4.2-1,2.2.8,1.7c.3.6.4,1.3.2,2l-.3,1.2c0,.2,0,.3-.2.5l-.6,1.3,2.3,2c.4,0,.7,0,1.1.2l.6.2c.6.2,1,.6,1.4,1.1l.8,1.2c.2.3.4.7.4,1.1l.5,2.5.4.7.6,1c.1.2.2.4.3.6l.5,1.4c0,.1,0,.3.1.4l.3,1.5c0,0,0,.2,0,.3v1.3c.2.2.2.4.1.6l-.3,2.9c0,.1,0,.2,0,.3l-.5,2.3v1.5s.6,1.3.6,1.3l1.1.9c.1.1.3.3.4.4l.7.9c.3.3.5.7.6,1.2l.2.7.2.3c.9,1.3.6,3-.6,4-.5.4-1.1.5-1.7.5ZM234.9,118c-1.6,0-2.8-1.3-2.8-2.8v-5.1c0-17.7,0-46.1,0-61.4v-21.4c0-1.6,1.3-2.8,2.8-2.8h0c1.6,0,2.8,1.3,2.8,2.8v21.4c0,15.3,0,43.6,0,61.4v5.1c0,1.6-1.3,2.8-2.8,2.8Z" style="fill: #b71234;"/>
</svg>